<?xml version="1.0" encoding="UTF-8" standalone="no"?>
<svg
   xmlns:dc="http://purl.org/dc/elements/1.1/"
   xmlns:cc="http://creativecommons.org/ns#"
   xmlns:rdf="http://www.w3.org/1999/02/22-rdf-syntax-ns#"
   xmlns:svg="http://www.w3.org/2000/svg"
   xmlns="http://www.w3.org/2000/svg"
   xmlns:xlink="http://www.w3.org/1999/xlink"
   preserveAspectRatio="none"
   version="1.1"
   id="svg4654"
   viewBox="0 0 1200.0001 900.00001"
   height="900"
   width="1200">
  <defs
     id="defs4656">
    <linearGradient
       id="linearGradient14236">
      <stop
         id="stop14232"
         offset="0"
         style="stop-color:#004455;stop-opacity:1;" />
      <stop
         id="stop14234"
         offset="1"
         style="stop-color:#008aad;stop-opacity:0.99607843" />
    </linearGradient>
    <radialGradient
       gradientUnits="userSpaceOnUse"
       gradientTransform="matrix(2.1829818,0,0,1.4237197,-482.4656,-89.598058)"
       r="87.830742"
       fy="472.67874"
       fx="497.85712"
       cy="472.67874"
       cx="497.85712"
       id="radialGradient5490"
       xlink:href="#linearGradient5488" />
    <linearGradient
       id="linearGradient5488">
      <stop
         id="stop5484"
         offset="0"
         style="stop-color:#ffd42a;stop-opacity:1;" />
      <stop
         id="stop5486"
         offset="1"
         style="stop-color:#ffd42a;stop-opacity:0;" />
    </linearGradient>
    <radialGradient
       gradientUnits="userSpaceOnUse"
       gradientTransform="matrix(1.9212102,0,0,1.2529949,-341.67475,-5.4113689)"
       r="131.37259"
       fy="472.67874"
       fx="497.85712"
       cy="472.67874"
       cx="497.85712"
       id="radialGradient5456"
       xlink:href="#linearGradient5454" />
    <linearGradient
       id="linearGradient5454">
      <stop
         id="stop5450"
         offset="0"
         style="stop-color:#ff8d15;stop-opacity:1;" />
      <stop
         id="stop5452"
         offset="1"
         style="stop-color:#ff8d15;stop-opacity:0;" />
    </linearGradient>
    <radialGradient
       gradientUnits="userSpaceOnUse"
       gradientTransform="matrix(1.2166441,0,0,0.73878567,21.361741,383.96496)"
       r="527.60339"
       fy="336.96445"
       fx="476.42856"
       cy="336.96445"
       cx="476.42856"
       id="radialGradient10018"
       xlink:href="#linearGradient10016" />
    <linearGradient
       id="linearGradient10016">
      <stop
         id="stop10012"
         offset="0"
         style="stop-color:#5fd3bc;stop-opacity:1;" />
      <stop
         id="stop10014"
         offset="1"
         style="stop-color:#5fd3bc;stop-opacity:0;" />
    </linearGradient>
    <linearGradient
       gradientTransform="matrix(1,0,0,0.81563576,0,194.75387)"
       gradientUnits="userSpaceOnUse"
       y2="694.64532"
       x2="639.9093"
       y1="1050.4916"
       x1="621.19611"
       id="linearGradient14238"
       xlink:href="#linearGradient14236" />
  </defs>
  <metadata
     id="metadata4659">
    <rdf:RDF>
      <cc:Work
         rdf:about="">
        <dc:format>image/svg+xml</dc:format>
        <dc:type
           rdf:resource="http://purl.org/dc/dcmitype/StillImage" />
        <dc:title></dc:title>
      </cc:Work>
    </rdf:RDF>
  </metadata>
  <g
     transform="translate(0,-152.36218)"
     id="layer1">
    <rect
       y="151.75374"
       x="-5.0491734"
       height="904.22498"
       width="1208.3562"
       id="rect10010"
       style="display:inline;fill:#0088aa;fill-opacity:1;stroke-width:0.95390201" />
    <ellipse
       style="display:inline;fill:url(#radialGradient10018);fill-opacity:1;stroke-width:2.0303216"
       ry="389.78583"
       rx="641.90558"
       cy="632.90942"
       cx="601.00574"
       id="path5127" />
    <path
       id="path4625-3"
       d="m 45.555316,292.96532 c 0,0 0.452091,-6.72055 24.110416,-7.61662 23.658458,-0.89607 27.275027,10.15549 27.275027,10.15549 0,0 26.672231,2.68823 26.370831,12.39568 -0.3014,9.70746 -11.3018,11.79828 -11.3018,11.79828 0,0 -4.21931,19.41491 -36.165672,18.66818 -31.946359,-0.74672 -37.973974,-14.7852 -37.973974,-14.7852 0,0 -21.247447,-0.89607 -19.28847,-15.97996 1.958978,-15.08388 26.973642,-14.63585 26.973642,-14.63585 z"
       style="display:inline;fill:#ffffff;fill-rule:evenodd;stroke:none;stroke-width:0.71782291px;stroke-linecap:butt;stroke-linejoin:miter;stroke-opacity:1" />
    <path
       id="path4625-0"
       d="m 1044.6521,261.22306 c 0,0 0.7185,7.78173 38.3226,8.81929 37.6041,1.03757 43.3524,-11.75906 43.3524,-11.75906 0,0 42.3945,-3.11268 41.9154,-14.35296 -0.479,-11.24028 -17.9636,-13.66124 -17.9636,-13.66124 0,0 -6.7065,-22.48057 -57.484,-21.61593 -50.7775,0.86464 -60.3581,17.1198 -60.3581,17.1198 0,0 -33.77179,1.03757 -30.6581,18.50322 3.1137,17.46567 42.8734,16.94688 42.8734,16.94688 z"
       style="display:inline;fill:#ffffff;fill-rule:evenodd;stroke:none;stroke-width:0.71782291px;stroke-linecap:butt;stroke-linejoin:miter;stroke-opacity:1" />
    <path
       id="path4625-0-1"
       d="m 386.51309,239.636 c 0,0 0.71856,7.78173 38.3226,8.81929 37.60412,1.03757 43.35246,-11.75907 43.35246,-11.75907 0,0 42.39444,-3.11268 41.91542,-14.35296 -0.47911,-11.24027 -17.96378,-13.66125 -17.96378,-13.66125 0,0 -6.70644,-22.48057 -57.48391,-21.61592 -50.77747,0.86463 -60.35811,17.1198 -60.35811,17.1198 0,0 -33.77177,1.03756 -30.65805,18.50322 3.11371,17.46567 42.87335,16.94689 42.87337,16.94689 z"
       style="display:inline;fill:#ffffff;fill-rule:evenodd;stroke:none;stroke-width:0.71782291px;stroke-linecap:butt;stroke-linejoin:miter;stroke-opacity:1" />
    <g
       transform="matrix(1,0,0,1.3766387,-3.4886888,-190.06361)"
       id="g14242">
      <ellipse
         id="path5127-5"
         cx="614.81348"
         cy="586.8526"
         rx="148.81573"
         ry="97.05619"
         style="display:inline;fill:url(#radialGradient5456);fill-opacity:1;stroke-width:0.48781177" />
      <ellipse
         id="path5127-5-4"
         cx="604.34741"
         cy="583.36395"
         rx="191.73291"
         ry="125.04635"
         style="display:inline;fill:url(#radialGradient5490);fill-opacity:1;stroke-width:0.62849247" />
    </g>
    <path
       id="rect8938"
       d="M -3.2792102,824.84204 H 1205.0769 V 1056.3538 H -3.2792102 Z"
       style="display:inline;fill:url(#linearGradient14238);fill-opacity:1;stroke-width:1.09128153" />
  </g>
</svg>
